<svg width="1200" height="900" viewBox="0 0 1200 900" fill="none" xmlns="http://www.w3.org/2000/svg" role="img" aria-labelledby="title desc">
  <title id="title">Placeholder de banquetería artesanal</title>
  <desc id="desc">Ilustración abstracta con bandejas, bocados dulces y salados en tonos crema, dorado y café.</desc>
  <rect width="1200" height="900" rx="56" fill="#FFF7EA"/>
  <circle cx="970" cy="145" r="210" fill="#E9C985" fill-opacity="0.45"/>
  <circle cx="165" cy="760" r="250" fill="#C9A67B" fill-opacity="0.24"/>
  <rect x="170" y="190" width="860" height="520" rx="52" fill="#FFFDF8" stroke="#C99A43" stroke-width="6"/>
  <ellipse cx="600" cy="455" rx="330" ry="170" fill="#F3DFBD"/>
  <ellipse cx="600" cy="455" rx="275" ry="130" fill="#FFFDF8" stroke="#8A6540" stroke-width="5"/>
  <g fill="#C99A43">
    <circle cx="430" cy="415" r="45"/>
    <circle cx="565" cy="385" r="45"/>
    <circle cx="700" cy="415" r="45"/>
    <circle cx="500" cy="515" r="45"/>
    <circle cx="645" cy="520" r="45"/>
    <circle cx="780" cy="500" r="45"/>
  </g>
  <g fill="#8A6540">
    <rect x="375" y="300" width="140" height="78" rx="28"/>
    <rect x="535" y="565" width="150" height="76" rx="28"/>
    <rect x="705" y="305" width="138" height="76" rx="28"/>
  </g>
  <g stroke="#251F1A" stroke-opacity="0.22" stroke-width="8" stroke-linecap="round">
    <path d="M300 745C420 810 780 810 905 745"/>
    <path d="M302 160C420 103 760 95 907 160"/>
  </g>
  <text x="600" y="805" text-anchor="middle" fill="#251F1A" font-family="Arial, sans-serif" font-size="46" font-weight="700">Agrega aquí tus fotografías</text>
</svg>
